<?xml version="1.0" encoding="utf-8"?>
<!-- Svg Vector Icons : http://www.onlinewebfonts.com/icon -->
<!DOCTYPE svg PUBLIC "-//W3C//DTD SVG 1.1//EN" "http://www.w3.org/Graphics/SVG/1.1/DTD/svg11.dtd">
<svg  fill="#282c34" version="1.1" xmlns="http://www.w3.org/2000/svg" xmlns:xlink="http://www.w3.org/1999/xlink" x="0px" y="0px" viewBox="0 0 1000 1000" enable-background="new 0 0 1000 1000" xml:space="preserve">
<metadata> Svg Vector Icons : http://www.onlinewebfonts.com/icon </metadata>
<g><g><g><path d="M207.9,768.9c-17.3-207.5,64.9-321.7,103-362.4C261.5,426,154.8,481.2,138,599C125.2,688.7,172.5,742,207.9,768.9z"/><path d="M802.6,760.3c33.5-29,70.9-80.4,59.4-161.3c-15.2-106.3-103.4-161.6-156.8-185.7C744.7,458.4,816.2,568.9,802.6,760.3z"/><path d="M374.6,375.8h-16.9c0,0-8.7,7.6-21.7,21.9c0,0-144.1,126.1-115.6,387.8c5.3,31.8,13.9,65.1,27,99.9h77.5c32,62,96.6,104.6,171.1,104.6c74.5,0,139.1-42.6,171.1-104.6h94c12.4-35,20.5-68.3,25.6-100.1c28.6-261.7-113.6-387-113.6-387c-13.2-14.6-22.2-22.5-22.2-22.5h-12.6c45.7-37.9,74.7-95.1,74.7-159.1C713.3,102.5,620.8,10,506.6,10c-114.2,0-206.7,92.5-206.7,206.7C299.9,280.7,329,337.9,374.6,375.8z M496.2,630.2c92.5,0,167.4,75,167.4,167.4c0,92.4-74.9,167.4-167.4,167.4c-92.4,0-167.4-74.9-167.4-167.4C328.9,705.1,403.8,630.2,496.2,630.2z"/><path d="M403.8,831.2h58.8V890c0,18.5,15,33.6,33.6,33.6s33.6-15.1,33.6-33.6v-58.8h58.8c18.5,0,33.6-15,33.6-33.6c0-18.6-15.1-33.6-33.6-33.6h-58.8v-58.8c0-18.6-15-33.6-33.6-33.6s-33.6,15.1-33.6,33.6V764h-58.8c-18.6,0-33.6,15.1-33.6,33.6C370.2,816.2,385.2,831.2,403.8,831.2z"/></g></g><g></g><g></g><g></g><g></g><g></g><g></g><g></g><g></g><g></g><g></g><g></g><g></g><g></g><g></g><g></g></g>
</svg>
