<?xml version="1.0" encoding="utf-8"?>
<!-- Svg Vector Icons : http://www.onlinewebfonts.com/icon -->
<!DOCTYPE svg PUBLIC "-//W3C//DTD SVG 1.1//EN" "http://www.w3.org/Graphics/SVG/1.1/DTD/svg11.dtd">
<svg fill="gray" version="1.1" xmlns="http://www.w3.org/2000/svg" xmlns:xlink="http://www.w3.org/1999/xlink" x="0px" y="0px" viewBox="0 0 1000 1000" enable-background="new 0 0 1000 1000" xml:space="preserve">
<metadata> Svg Vector Icons : http://www.onlinewebfonts.com/icon </metadata>
<g><g transform="translate(0.000000,511.000000) scale(0.100000,-0.100000)"><path d="M4712.2,5006.9c-642.3-79.2-1207.4-348.2-1662-786.2c-444.2-429.6-709-905-844.6-1522.3l-48-212.7V-225.2v-2710.9l56.3-202.3c214.8-779.9,773.7-1355.5,1553.6-1595.3c171-52.1,208.5-56.3,569.3-56.3c362.8,0,396.2,4.2,573.5,58.4c763.2,233.5,1297.1,784.1,1539,1586.9c43.8,143.9,43.8,173.1,50.1,2698.4c6.3,2504.5,6.3,2556.6-35.4,2721.3c-110.5,442.1-394.1,794.5-802.9,992.6c-219,106.4-408.7,150.1-669.4,150.1c-767.4,0-1382.6-531.8-1486.8-1284.6c-14.6-104.3-22.9-786.2-22.9-1960.2c0-1983.1-2.1-1933.1,131.4-2158.3c87.6-143.9,221-262.8,390-344.1c123-58.4,154.3-64.6,333.7-64.6c181.4,0,210.6,6.3,335.7,66.7c168.9,83.4,352.4,271.1,431.7,437.9l56.3,120.9l6.3,1434.7l6.3,1432.6h-179.3h-177.3V-281.5c0-948.8-8.3-1409.7-22.9-1466c-31.3-108.4-171-248.2-279.4-279.5c-317-87.6-596.4,58.4-656.9,344.1c-14.6,70.9-20.9,688.2-16.7,1970.6c6.3,1703.7,10.4,1874.7,43.8,1987.3c116.8,392.1,385.8,652.7,775.7,752.8c70.9,16.7,214.8,31.3,333.7,31.3c118.9,0,262.7-14.6,333.7-31.3c402.5-102.2,681.9-379.5,782-773.7c39.6-156.4,41.7-235.6,41.7-2627.5c0-2635.8,2.1-2596.2-102.2-2894.4c-100.1-285.7-308.6-583.9-542.2-777.8c-152.2-125.1-485.9-298.2-679.8-350.3c-171-48-642.3-64.6-832-31.3C3290-4302,2739.5-3786.9,2558.1-3077.9l-45.9,183.5v2669.2c0,2854.8-4.2,2754.7,106.4,3132.2c143.9,498.4,460.9,955.1,873.8,1263.7C4499.5,4921.4,5953,4796.2,6814.2,3885c256.5-271.1,475.4-648.5,573.5-992.6c95.9-329.5,98-394.1,98-2202.1v-1718.3H7663h179.3L7836,782l-6.3,1808l-66.7,241.9c-141.8,531.8-394.1,971.8-767.4,1340.9c-531.8,525.5-1192.8,813.3-1918.5,834.1C4916.6,5011,4751.9,5011,4712.2,5006.9z"/></g></g>
</svg>