<?xml version="1.0" encoding="utf-8"?>
<!-- Svg Vector Icons : http://www.onlinewebfonts.com/icon -->
<!DOCTYPE svg PUBLIC "-//W3C//DTD SVG 1.1//EN" "http://www.w3.org/Graphics/SVG/1.1/DTD/svg11.dtd">
<svg fill="#282c34" version="1.1" xmlns="http://www.w3.org/2000/svg" xmlns:xlink="http://www.w3.org/1999/xlink" x="0px" y="0px" viewBox="0 0 1000 1000" enable-background="new 0 0 1000 1000" xml:space="preserve">
<metadata> Svg Vector Icons : http://www.onlinewebfonts.com/icon </metadata>
<g><path d="M300.5,402.3c71.2,0,140.1,0,211.8,0c-58.3-44-85.3-100.7-78.3-171.4c4.7-47.7,26.5-87.8,63.6-118.3c76.5-63,179.5-55.3,247.9,14.4c67.5,68.8,73.1,204.7-31.5,276.8c3.1,1.1,5.7,2.1,8.4,2.8c45.6,12.6,77.7,52.8,79.4,99.9c0.5,13,0.4,26,0.2,39.1c-0.1,6.1,2.3,7.6,8.2,8.3c31.4,3.8,57.5-5.4,78.7-29.4c8.3-9.5,18.4-17.4,27.4-26.3c14.9-14.9,32.4-22.5,53.8-20.2c6.4,0.7,12.9,0.1,20.2,0.1c0,125.6,0,250.6,0,376.2c-26.7,2.2-52.6,3.3-73.6-18.2c-13.6-14-28.8-26.4-42.4-40.4c-19.2-19.7-43.4-16.8-67.2-15.9c-1.7,0.1-4.6,4.9-4.7,7.6c-0.5,12.3,0,24.6-0.4,36.9c-1.7,57.9-45.4,102.5-103.1,105.5c-3.6,0.2-7.2,0.3-10.8,0.3c-187.8,0-375.5-0.1-563.3,0.1c-39.8,0.1-71.8-14.2-95.1-46.8C17,865.9,10.4,846,10.3,824.5C10,719.3,9.7,614,10.4,508.7c0.3-48.3,33.3-89.2,79.6-102.1c2.6-0.7,5.2-1.8,8.3-2.9C-5.9,332.9-2.7,193.9,70.7,123.1c74.5-71.9,184-70.8,256.9,1.3C400.5,196.6,400.9,330.4,300.5,402.3L300.5,402.3z"/></g>
</svg>