<?xml version="1.0" encoding="utf-8"?>
<!-- Svg Vector Icons : http://www.onlinewebfonts.com/icon -->
<!DOCTYPE svg PUBLIC "-//W3C//DTD SVG 1.1//EN" "http://www.w3.org/Graphics/SVG/1.1/DTD/svg11.dtd">
<svg fill="#d55151" version="1.1" xmlns="http://www.w3.org/2000/svg" xmlns:xlink="http://www.w3.org/1999/xlink" x="0px" y="0px" viewBox="0 0 1000 1000" enable-background="new 0 0 1000 1000" xml:space="preserve">
<metadata> Svg Vector Icons : http://www.onlinewebfonts.com/icon </metadata>
<g><path d="M990,500c0,221.7-147.2,408.9-349.1,469.4c9.5-20.1,14.9-42.5,14.9-66.2c0-8.7-0.8-17.3-2.1-25.6c49.7-20.3,95.4-50.4,134.4-89.4C865,711.1,907.4,608.8,907.4,500c0-108.9-42.4-211.2-119.4-288.1C711,134.9,608.9,92.5,500,92.5c-108.9,0-211.2,42.4-288.1,119.4C135,288.9,92.5,391.1,92.5,500c0,108.9,42.4,211.2,119.4,288.1c39.5,39.5,85.6,69.9,136,90.1c-1.3,8.2-2.1,16.5-2.1,25c0,23.9,5.5,46.5,15.1,66.8C158.1,910,10,722.3,10,500C10,229.4,229.4,10,500,10C770.6,10,990,229.4,990,500L990,500z M500.8,816.4c-48,0-86.8,38.8-86.8,86.8c0,48,38.8,86.8,86.8,86.8c48,0,86.8-38.8,86.8-86.8C587.6,855.2,548.7,816.4,500.8,816.4L500.8,816.4z M736.3,430.2c0-129.8-105.6-235.5-235.5-235.5c-129.9,0-235.4,105.7-235.4,235.5c0,29.9,24.2,54,54.1,54c29.9,0,54.1-24.2,54.1-54c0-70.2,57.1-127.3,127.3-127.3c70.2,0,127.4,57.1,127.4,127.3c0,49.1-28.8,94.3-73.3,115.3c-0.5,0.2-0.9,0.4-1.3,0.6c-65,31.2-106.9,92.8-106.9,162.5c0,29.9,24.2,54.1,54.1,54.1c29.9,0,54.1-24.2,54.1-54.1c0-16.4,18-52.1,46-65.3l1.2-0.6C683.7,603.8,736.3,520.5,736.3,430.2L736.3,430.2z"/></g>
</svg>