<?xml version="1.0" encoding="utf-8"?>
<!-- Svg Vector Icons : http://www.onlinewebfonts.com/icon -->
<!DOCTYPE svg PUBLIC "-//W3C//DTD SVG 1.1//EN" "http://www.w3.org/Graphics/SVG/1.1/DTD/svg11.dtd">
<svg fill="gray" version="1.1" xmlns="http://www.w3.org/2000/svg" xmlns:xlink="http://www.w3.org/1999/xlink" x="0px" y="0px" viewBox="0 0 1000 1000" enable-background="new 0 0 1000 1000" xml:space="preserve">
<metadata> Svg Vector Icons : http://www.onlinewebfonts.com/icon </metadata>
<g><path d="M867.4,972.4h-735C64.8,972.4,10,919.5,10,854.3V145.8C10,80.5,64.8,27.6,132.5,27.6h735c67.7,0,122.6,52.9,122.6,118.1v708.5C990,919.5,935.1,972.4,867.4,972.4z M867.4,913.3c33.9,0,61.3-26.4,61.3-59V618L745,440.9l-261.5,252l225.7,220.4H867.4z M71.2,854.3c0,32.6,27.4,59,61.3,59h490l-308-296.8L71.2,826.5V854.3z M928.7,145.8c0-32.6-27.4-59.1-61.3-59.1h-735c-33.8,0-61.3,26.4-61.3,59.1v600.4l245-216.6l124.3,121.3L745,352.4l183.7,180.9V145.8z M255,381.9c-67.7,0-122.5-52.9-122.5-118.1c0-65.2,54.8-118.1,122.5-118.1c67.7,0,122.6,52.9,122.6,118.1C377.5,329,322.7,381.9,255,381.9z M255,204.8c-33.8,0-61.3,26.4-61.3,59.1c0,32.6,27.5,59.1,61.3,59.1c33.8,0,61.3-26.4,61.3-59.1C316.2,231.2,288.8,204.8,255,204.8z"/></g>
</svg>